# xmcd
#
# Track frame offsets: 
#        150
#        13858
#        28610
#        41970
#        55307
#        68923
#        82633
#        99566
#        113177
#        126541
#        140191
#        156434
#        171646
#        185159
#        201893
#        217817
#        233320
#        248303
#        260773
#        274554
#        288402
#
# Disc length: 4021 seconds
#
# Revision: 0
# Processed by: cddbd v1.5.2PL0 Copyright (c) Steve Scherf et al.
# Submitted via: ExactAudioCopy v0.95b3
#
DISCID=3a0fb315
DTITLE=Jelly Roll Morton  - Volume 7 1929-1930 Complete Edition
DYEAR=1900
DGENRE=
TTITLE0=Smilin' The Blues Away
TTITLE1=Turtle Twist
TTITLE2=My Little Dixie Home
TTITLE3=That's Like It Ought To Be
TTITLE4=Each Day
TTITLE5=Each Day
TTITLE6=If Someone Would Only Love Me
TTITLE7=That'll Never Do
TTITLE8=I'm Looking For A Little Blue Bird
TTITLE9=Little Lawrence
TTITLE10=Harmony Blues
TTITLE11=Fussy Mabel
TTITLE12=Ponchartrain
TTITLE13=Where They Get Lovin' They's Gone
TTITLE14=Where They Get Lovin' Yhey's Gone
TTITLE15=You Done Played Out Blues
TTITLE16=Yone Played Out Blues
TTITLE17=Oil Well
TTITLE18=Oil Well
TTITLE19=Load Of Call
TTITLE20=Load Of Call
EXTD=
EXTT0=
EXTT1=
EXTT2=
EXTT3=
EXTT4=
EXTT5=
EXTT6=
EXTT7=
EXTT8=
EXTT9=
EXTT10=
EXTT11=
EXTT12=
EXTT13=
EXTT14=
EXTT15=
EXTT16=
EXTT17=
EXTT18=
EXTT19=
EXTT20=
PLAYORDER=
